<svg width="300" height="300" viewBox="0 0 300 300" fill="none" xmlns="http://www.w3.org/2000/svg">
<path d="M238.393 31.2257C217.416 15.8427 187.35 2.55734 130.013 10.2489C98.5475 14.4698 73.5152 31.0863 60.09 41.7146C43.3085 54.9999 23.7301 94.1567 15.3393 113.735C6.94858 133.314 -6.33676 167.576 3.45244 201.838C13.2416 236.1 24.4293 243.092 44.7069 259.175C64.9846 275.257 107.638 289.941 150.29 292.038C192.943 294.136 234.897 266.167 260.769 240.296C286.64 214.424 297.828 171.072 299.925 134.712C302.023 98.3521 259.37 46.6087 238.393 31.2257Z" fill="#51A045"/>
<mask id="mask0" mask-type="alpha" maskUnits="userSpaceOnUse" x="0" y="8" width="300" height="285">
<path d="M238.393 31.2257C217.416 15.8427 187.35 2.55734 130.013 10.2489C98.5475 14.4698 73.5152 31.0863 60.09 41.7146C43.3085 54.9999 23.7301 94.1567 15.3393 113.735C6.94858 133.314 -6.33676 167.576 3.45244 201.838C13.2416 236.1 24.4293 243.092 44.7069 259.175C64.9846 275.257 107.638 289.941 150.29 292.038C192.943 294.136 234.897 266.167 260.769 240.296C286.64 214.424 297.828 171.072 299.925 134.712C302.023 98.3521 259.37 46.6087 238.393 31.2257Z" fill="#51A045"/>
</mask>
<g mask="url(#mask0)">
<path d="M257.633 198.653C257.07 171.222 259.845 117.784 236.028 108.091C229.404 105.395 222.101 101.442 202.623 103.635C152.066 109.328 66.8252 131.912 50.9661 142.846C36.124 153.08 37.3235 168.384 41.3868 194.35C45.4501 220.316 76.0588 299.15 88.0998 331.538C111.58 394.696 180.234 476.598 211.563 468.212C242.891 459.826 258.196 226.085 257.633 198.653Z" fill="white"/>
<path fill-rule="evenodd" clip-rule="evenodd" d="M211.817 148.105C220.936 146.576 229.416 150.082 230.923 159.071L233.006 171.492C233.266 173.04 232.427 174.054 230.638 174.354L227.06 174.954C225.27 175.254 224.089 174.579 223.83 173.031L222.484 165.01C221.722 160.466 217.643 157.723 213.545 158.41C209.447 159.097 206.544 163.011 207.306 167.555L208.651 175.577C208.91 177.125 208.072 178.138 206.283 178.438L202.704 179.038C200.915 179.338 199.734 178.664 199.474 177.116L197.391 164.694C195.884 155.706 202.756 149.625 211.817 148.105ZM142.781 159.683C151.9 158.153 160.379 161.66 161.887 170.648L163.97 183.07C164.23 184.618 163.391 185.631 161.602 185.931L158.023 186.531C156.234 186.831 155.053 186.157 154.793 184.609L153.448 176.587C152.686 172.043 148.607 169.3 144.509 169.988C140.411 170.675 137.507 174.589 138.27 179.133L139.615 187.154C139.874 188.702 139.036 189.716 137.246 190.016L133.668 190.616C131.879 190.916 130.698 190.241 130.438 188.693L128.355 176.272C126.848 167.283 133.72 161.202 142.781 159.683ZM203.499 189.557C203.415 188.456 202.371 187.713 201.282 187.895L164.792 194.015C163.702 194.198 162.959 195.241 163.239 196.309C169.005 218.314 205.227 212.24 203.499 189.557Z" fill="#51A045"/>
<path d="M196.165 116.789C190.886 85.0608 177.911 55.0991 158.374 29.5184C157.179 27.9552 155.885 26.3497 154.082 25.5449C151.995 24.5995 149.539 24.8956 147.279 25.3625C140.2 26.8392 134.129 29.8613 128.18 33.8592C127.853 34.0296 127.591 34.3022 127.434 34.6353C127.393 34.8866 127.409 35.144 127.482 35.3882C127.554 35.6323 127.682 35.8569 127.853 36.0452C130.564 40 163.482 80.642 169.794 91.0536C153.985 73.4875 135.719 55.2718 114.704 44.0239C112.781 43.0035 110.67 41.9706 108.527 42.3393C106.474 42.6957 104.876 44.256 103.47 45.7891C101.402 48.0382 99.3612 50.3229 97.4895 52.7427C95.8965 54.7916 94.1134 56.5783 92.9729 58.9549C92.6941 59.4311 92.5724 59.9829 92.6247 60.5322C92.7698 61.276 93.4791 61.7608 94.1229 62.1597C112.142 73.2381 149.415 95.2401 149.834 95.4901C143.932 92.0302 99.9647 83.5304 94.3343 83.8617C89.4992 84.1483 91.3131 91.805 92.3159 96.5736C93.1697 100.684 93.4154 105.461 98.2808 106.446C117.979 110.44 162.824 120.725 182.524 124.714L196.165 116.789Z" fill="white"/>
</g>
</svg>
